<svg height="512pt" viewBox="0 0 512 512" width="512pt" xmlns="http://www.w3.org/2000/svg"><path d="m150 105c0-8.289062-6.710938-15-15-15h-60c-8.289062 0-15 6.710938-15 15v91c0 8.289062 6.710938 15 15 15s105-6.710938 105-15zm0 0" fill="#3e5959"/><path d="m436 90h-60c-8.289062 0-15 6.710938-15 15v91c0 8.289062 66.710938 15 75 15s15-6.710938 15-15v-91c0-8.289062-6.710938-15-15-15zm0 0" fill="#384949"/><path d="m391 120v76c0 8.398438-6.597656 15-15 15h-241c-8.402344 0-15-6.601562-15-15v-181c0-8.402344 6.597656-15 15-15h136zm0 0" fill="#ececf1"/><path d="m376 211h-120v-211h15l120 120v76c0 8.398438-6.597656 15-15 15zm0 0" fill="#e2e2e7"/><path d="m512 226v150c0 24.898438-21.097656 45-46 45h-421c-24.902344 0-45-20.101562-45-45v-150c0-24.902344 20.097656-45 45-45h421c24.902344 0 46 20.097656 46 45zm0 0" fill="#ff3939"/><path d="m512 226v150c0 24.898438-21.097656 45-46 45h-210v-240h210c24.902344 0 46 20.097656 46 45zm0 0" fill="#ff001e"/><path d="m391 316v181c0 8.398438-6.597656 15-15 15h-241c-8.402344 0-15-6.601562-15-15v-181zm0 0" fill="#ececf1"/><path d="m391 316v181c0 8.398438-6.597656 15-15 15h-120v-196zm0 0" fill="#e2e2e7"/><path d="m89.972656 256c0 8.285156-6.71875 15-15 15-8.285156 0-15-6.714844-15-15s6.714844-15 15-15c8.28125 0 15 6.714844 15 15zm0 0" fill="#ececf1"/><path d="m149.972656 256c0 8.285156-6.71875 15-15 15-8.285156 0-15-6.714844-15-15s6.714844-15 15-15c8.28125 0 15 6.714844 15 15zm0 0" fill="#ececf1"/><path d="m386.605469 64.394531-60-60c-2.8125-2.8125-6.621094-4.394531-10.605469-4.394531h-45v105c0 8.285156 6.714844 15 15 15h105v-45c0-3.984375-1.582031-7.792969-4.394531-10.605469zm0 0" fill="#d3d3d8"/><path d="m436 271h-60c-8.289062 0-15-6.710938-15-15s6.710938-15 15-15h60c8.289062 0 15 6.710938 15 15s-6.710938 15-15 15zm0 0" fill="#e2e2e7"/><path d="m331 376c0 8.398438-6.597656 15-15 15h-121c-8.402344 0-15-6.601562-15-15 0-8.402344 6.597656-15 15-15h121c8.402344 0 15 6.597656 15 15zm0 0" fill="#3e5959"/><path d="m331 436c0 8.398438-6.597656 15-15 15h-121c-8.402344 0-15-6.601562-15-15 0-8.402344 6.597656-15 15-15h121c8.402344 0 15 6.597656 15 15zm0 0" fill="#3e5959"/><path d="m331 436c0 8.398438-6.597656 15-15 15h-60v-30h60c8.402344 0 15 6.597656 15 15zm0 0" fill="#384949"/><path d="m331 376c0 8.398438-6.597656 15-15 15h-60v-30h60c8.402344 0 15 6.597656 15 15zm0 0" fill="#384949"/><path d="m421 316c0 8.398438-6.597656 15-15 15h-301c-8.402344 0-15-6.601562-15-15 0-8.402344 6.597656-15 15-15h301c8.402344 0 15 6.597656 15 15zm0 0" fill="#3e5959"/><path d="m421 316c0 8.398438-6.597656 15-15 15h-150v-30h150c8.402344 0 15 6.597656 15 15zm0 0" fill="#384949"/></svg>